<?xml version="1.0" standalone="no"?>
<!DOCTYPE svg PUBLIC "-//W3C//DTD SVG 20010904//EN"
 "http://www.w3.org/TR/2001/REC-SVG-20010904/DTD/svg10.dtd">
<svg version="1.0" xmlns="http://www.w3.org/2000/svg"
 width="900.000000pt" height="900.000000pt" viewBox="0 0 900.000000 900.000000"
 preserveAspectRatio="xMidYMid meet">
<metadata>
Created by potrace 1.14, written by Peter Selinger 2001-2017
</metadata>
<g transform="translate(0.000000,900.000000) scale(0.100000,-0.100000)"
fill="#000000" stroke="none">
<path d="M0 4500 l0 -4500 4500 0 4500 0 0 4500 0 4500 -4500 0 -4500 0 0
-4500z m4520 2573 c63 -9 117 -20 120 -24 3 -3 24 -10 48 -14 24 -4 56 -13 70
-21 15 -8 33 -14 41 -14 23 0 215 -73 229 -87 7 -7 22 -13 31 -13 10 0 24 -6
30 -14 7 -8 23 -17 36 -20 14 -4 25 -11 25 -16 0 -6 6 -10 13 -10 8 0 24 -9
37 -20 13 -11 27 -20 32 -20 4 0 8 -7 8 -17 0 -9 3 -13 6 -10 10 9 46 -12 39
-24 -4 -5 -2 -9 4 -9 10 0 111 -100 111 -110 0 -4 9 -17 20 -30 11 -13 20 -29
20 -36 0 -7 4 -14 8 -16 11 -4 52 -86 52 -104 0 -8 7 -25 15 -38 9 -13 18 -47
22 -75 3 -28 9 -51 13 -51 10 0 10 -4 14 -215 2 -104 0 -219 -5 -255 -5 -36
-12 -95 -15 -131 -6 -61 -5 -67 13 -73 11 -4 31 -27 44 -53 20 -40 24 -60 22
-131 -1 -47 -5 -88 -10 -91 -4 -3 -9 -19 -11 -36 -1 -16 -17 -59 -34 -95 -27
-57 -45 -84 -88 -137 -5 -6 -12 -23 -16 -37 -3 -14 -9 -26 -14 -26 -4 0 -12
-18 -19 -40 -7 -24 -23 -47 -39 -57 -44 -29 -50 -38 -57 -89 -4 -27 -13 -59
-21 -71 -8 -12 -14 -31 -14 -43 0 -11 -4 -20 -8 -20 -5 0 -14 -19 -21 -42 -7
-24 -17 -57 -22 -74 -5 -17 -9 -44 -9 -60 0 -17 -5 -35 -12 -42 -7 -7 -9 -12
-5 -12 4 0 -1 -8 -10 -18 -10 -11 -21 -17 -25 -15 -5 2 -8 -1 -8 -6 0 -6 -7
-11 -16 -11 -9 0 -22 -7 -28 -15 -6 -8 -30 -15 -54 -17 -24 -1 -46 -7 -50 -13
-4 -5 -19 -16 -34 -24 -16 -8 -28 -21 -28 -28 0 -8 -4 -12 -9 -9 -19 12 -31
-25 -35 -109 -3 -48 -7 -89 -9 -92 -11 -10 27 -64 71 -99 26 -21 58 -49 72
-61 14 -13 41 -26 60 -29 19 -4 47 -15 62 -25 14 -11 33 -19 41 -19 8 0 20 -7
27 -15 7 -8 19 -15 27 -15 8 0 29 -6 46 -14 18 -8 59 -17 92 -19 88 -7 277
-37 300 -47 11 -5 39 -12 63 -15 23 -4 49 -13 56 -21 8 -8 23 -14 34 -14 10 0
22 -3 26 -7 4 -5 11 -8 14 -9 16 -1 62 -28 62 -36 0 -4 6 -8 14 -8 7 0 24 -10
38 -22 14 -13 38 -35 54 -49 34 -31 64 -69 64 -82 0 -4 6 -5 13 -1 6 4 9 4 5
-1 -4 -4 -1 -20 8 -36 8 -16 14 -32 13 -35 0 -4 4 -10 9 -13 13 -8 52 -117 52
-144 0 -13 4 -27 9 -32 12 -13 17 -67 8 -83 -10 -15 -3577 -18 -3606 -2 -15 8
-17 16 -10 47 25 121 42 171 82 248 23 44 25 47 62 89 13 16 22 32 19 37 -3 5
2 6 10 3 10 -4 16 -1 16 7 1 16 74 69 95 69 8 0 15 4 15 9 0 5 12 14 28 19 15
6 57 22 94 36 37 13 89 28 115 32 26 3 53 10 58 14 6 5 52 13 104 19 52 7 98
14 102 17 5 3 35 7 66 10 32 3 72 12 88 19 17 7 41 17 55 21 14 3 27 10 30 13
7 9 113 51 128 51 6 0 12 5 12 12 0 6 3 8 7 5 3 -4 16 5 29 18 13 14 26 25 30
25 4 0 15 10 25 22 11 11 19 18 19 14 0 -3 16 10 36 30 l35 37 -2 91 c-3 85
-20 146 -41 146 -5 0 -17 8 -27 18 -43 38 -54 44 -93 50 -51 6 -116 40 -140
73 -11 14 -21 47 -24 75 -3 27 -12 67 -21 89 -8 22 -19 55 -25 73 -6 17 -15
32 -20 32 -4 0 -8 10 -8 23 -1 12 -7 33 -15 47 -8 14 -14 35 -15 48 0 29 -28
72 -46 72 -8 0 -19 10 -24 23 -6 12 -14 29 -20 37 -5 8 -17 33 -27 55 -9 22
-34 63 -55 91 -21 28 -38 59 -38 69 0 10 -3 15 -7 12 -3 -4 -17 19 -30 51 -21
49 -25 75 -26 182 -2 117 0 128 21 154 19 25 21 36 16 80 -4 28 -11 62 -16 76
-19 49 -39 339 -27 376 4 12 9 48 10 80 1 32 6 66 10 74 4 8 15 38 24 65 17
58 101 205 115 205 6 0 10 5 10 12 0 15 118 128 135 128 7 0 18 7 25 15 7 8
23 15 36 15 28 0 85 55 115 112 14 27 134 148 147 148 4 0 17 8 28 18 21 20
104 62 122 62 7 0 12 5 12 12 0 6 2 9 5 6 3 -3 36 2 73 12 87 23 216 24 362 3z"/>
</g>
</svg>
